<?xml version="1.0" encoding="utf-8" standalone="no"?>
<!DOCTYPE svg PUBLIC "-//W3C//DTD SVG 1.1//EN"
  "http://www.w3.org/Graphics/SVG/1.1/DTD/svg11.dtd">
<!-- Created with matplotlib (http://matplotlib.org/) -->
<svg height="432pt" version="1.1" viewBox="0 0 576 432" width="576pt" xmlns="http://www.w3.org/2000/svg" xmlns:xlink="http://www.w3.org/1999/xlink">
 <defs>
  <style type="text/css">
*{stroke-linecap:butt;stroke-linejoin:round;stroke-miterlimit:100000;}
  </style>
 </defs>
 <g id="figure_1">
  <g id="patch_1">
   <path d="M 0 432 
L 576 432 
L 576 0 
L 0 0 
z
" style="fill:#ffffff;"/>
  </g>
  <g id="axes_1">
   <g id="patch_2">
    <path d="M 72 388.8 
L 518.4 388.8 
L 518.4 43.2 
L 72 43.2 
z
" style="fill:#ffffff;"/>
   </g>
   <g id="PathCollection_1">
    <defs>
     <path d="M 0 2.236068 
C 0.593012 2.236068 1.161816 2.000462 1.581139 1.581139 
C 2.000462 1.161816 2.236068 0.593012 2.236068 0 
C 2.236068 -0.593012 2.000462 -1.161816 1.581139 -1.581139 
C 1.161816 -2.000462 0.593012 -2.236068 0 -2.236068 
C -0.593012 -2.236068 -1.161816 -2.000462 -1.581139 -1.581139 
C -2.000462 -1.161816 -2.236068 -0.593012 -2.236068 0 
C -2.236068 0.593012 -2.000462 1.161816 -1.581139 1.581139 
C -1.161816 2.000462 -0.593012 2.236068 0 2.236068 
z
" id="m16496f2107" style="stroke:#000000;"/>
    </defs>
    <g clip-path="url(#p740c42ec36)">
     <use style="fill:#0000ff;stroke:#000000;" x="138.96" xlink:href="#m16496f2107" y="368.492544"/>
     <use style="fill:#0000ff;stroke:#000000;" x="142.148571429" xlink:href="#m16496f2107" y="360.0018432"/>
     <use style="fill:#0000ff;stroke:#000000;" x="145.337142857" xlink:href="#m16496f2107" y="357.9144192"/>
     <use style="fill:#0000ff;stroke:#000000;" x="148.525714286" xlink:href="#m16496f2107" y="341.5163904"/>
     <use style="fill:#0000ff;stroke:#000000;" x="151.714285714" xlink:href="#m16496f2107" y="338.674176"/>
     <use style="fill:#0000ff;stroke:#000000;" x="154.902857143" xlink:href="#m16496f2107" y="346.4183808"/>
     <use style="fill:#0000ff;stroke:#000000;" x="158.091428571" xlink:href="#m16496f2107" y="346.0852224"/>
     <use style="fill:#0000ff;stroke:#000000;" x="161.28" xlink:href="#m16496f2107" y="343.6383744"/>
     <use style="fill:#0000ff;stroke:#000000;" x="164.468571429" xlink:href="#m16496f2107" y="356.0620032"/>
     <use style="fill:#0000ff;stroke:#000000;" x="167.657142857" xlink:href="#m16496f2107" y="353.486592"/>
     <use style="fill:#0000ff;stroke:#000000;" x="170.845714286" xlink:href="#m16496f2107" y="348.7339008"/>
     <use style="fill:#0000ff;stroke:#000000;" x="174.034285714" xlink:href="#m16496f2107" y="357.0352128"/>
     <use style="fill:#0000ff;stroke:#000000;" x="177.222857143" xlink:href="#m16496f2107" y="239.7399552"/>
     <use style="fill:#0000ff;stroke:#000000;" x="180.411428571" xlink:href="#m16496f2107" y="231.3252864"/>
     <use style="fill:#0000ff;stroke:#000000;" x="183.6" xlink:href="#m16496f2107" y="226.9776384"/>
     <use style="fill:#0000ff;stroke:#000000;" x="186.788571429" xlink:href="#m16496f2107" y="232.9537536"/>
     <use style="fill:#0000ff;stroke:#000000;" x="189.977142857" xlink:href="#m16496f2107" y="231.7690368"/>
     <use style="fill:#0000ff;stroke:#000000;" x="193.165714286" xlink:href="#m16496f2107" y="222.6756096"/>
     <use style="fill:#0000ff;stroke:#000000;" x="196.354285714" xlink:href="#m16496f2107" y="334.4039424"/>
     <use style="fill:#0000ff;stroke:#000000;" x="199.542857143" xlink:href="#m16496f2107" y="344.5383168"/>
     <use style="fill:#0000ff;stroke:#000000;" x="202.731428571" xlink:href="#m16496f2107" y="336.5190144"/>
     <use style="fill:#0000ff;stroke:#000000;" x="205.92" xlink:href="#m16496f2107" y="331.575552"/>
     <use style="fill:#0000ff;stroke:#000000;" x="209.108571429" xlink:href="#m16496f2107" y="215.4857472"/>
     <use style="fill:#0000ff;stroke:#000000;" x="212.297142857" xlink:href="#m16496f2107" y="332.716032"/>
     <use style="fill:#0000ff;stroke:#000000;" x="215.485714286" xlink:href="#m16496f2107" y="329.8240512"/>
     <use style="fill:#0000ff;stroke:#000000;" x="218.674285714" xlink:href="#m16496f2107" y="221.5254528"/>
     <use style="fill:#0000ff;stroke:#000000;" x="221.862857143" xlink:href="#m16496f2107" y="331.1926272"/>
     <use style="fill:#0000ff;stroke:#000000;" x="225.051428571" xlink:href="#m16496f2107" y="327.5748864"/>
     <use style="fill:#0000ff;stroke:#000000;" x="228.24" xlink:href="#m16496f2107" y="214.4282112"/>
     <use style="fill:#0000ff;stroke:#000000;" x="231.428571429" xlink:href="#m16496f2107" y="319.1007744"/>
     <use style="fill:#0000ff;stroke:#000000;" x="234.617142857" xlink:href="#m16496f2107" y="220.8425472"/>
     <use style="fill:#0000ff;stroke:#000000;" x="237.805714286" xlink:href="#m16496f2107" y="329.4853632"/>
     <use style="fill:#0000ff;stroke:#000000;" x="240.994285714" xlink:href="#m16496f2107" y="313.0182144"/>
     <use style="fill:#0000ff;stroke:#000000;" x="244.182857143" xlink:href="#m16496f2107" y="203.675904"/>
     <use style="fill:#0000ff;stroke:#000000;" x="247.371428571" xlink:href="#m16496f2107" y="314.9991936"/>
     <use style="fill:#0000ff;stroke:#000000;" x="250.56" xlink:href="#m16496f2107" y="212.1320448"/>
     <use style="fill:#0000ff;stroke:#000000;" x="253.748571429" xlink:href="#m16496f2107" y="201.5235072"/>
     <use style="fill:#0000ff;stroke:#000000;" x="256.937142857" xlink:href="#m16496f2107" y="299.109888"/>
     <use style="fill:#0000ff;stroke:#000000;" x="260.125714286" xlink:href="#m16496f2107" y="204.1155072"/>
     <use style="fill:#0000ff;stroke:#000000;" x="263.314285714" xlink:href="#m16496f2107" y="304.2358272"/>
     <use style="fill:#0000ff;stroke:#000000;" x="266.502857143" xlink:href="#m16496f2107" y="296.6920704"/>
     <use style="fill:#0000ff;stroke:#000000;" x="269.691428571" xlink:href="#m16496f2107" y="199.4416128"/>
     <use style="fill:#0000ff;stroke:#000000;" x="272.88" xlink:href="#m16496f2107" y="194.8603392"/>
     <use style="fill:#0000ff;stroke:#000000;" x="276.068571429" xlink:href="#m16496f2107" y="303.1147008"/>
     <use style="fill:#0000ff;stroke:#000000;" x="279.257142857" xlink:href="#m16496f2107" y="294.4124928"/>
     <use style="fill:#0000ff;stroke:#000000;" x="282.445714286" xlink:href="#m16496f2107" y="193.4447616"/>
     <use style="fill:#0000ff;stroke:#000000;" x="285.634285714" xlink:href="#m16496f2107" y="188.352"/>
     <use style="fill:#0000ff;stroke:#000000;" x="288.822857143" xlink:href="#m16496f2107" y="303.2957952"/>
     <use style="fill:#0000ff;stroke:#000000;" x="292.011428571" xlink:href="#m16496f2107" y="284.2103808"/>
     <use style="fill:#0000ff;stroke:#000000;" x="295.2" xlink:href="#m16496f2107" y="183.5702784"/>
     <use style="fill:#0000ff;stroke:#000000;" x="298.388571429" xlink:href="#m16496f2107" y="189.6625152"/>
     <use style="fill:#0000ff;stroke:#000000;" x="301.577142857" xlink:href="#m16496f2107" y="275.9035392"/>
     <use style="fill:#0000ff;stroke:#000000;" x="304.765714286" xlink:href="#m16496f2107" y="282.0690432"/>
     <use style="fill:#0000ff;stroke:#000000;" x="307.954285714" xlink:href="#m16496f2107" y="273.9004416"/>
     <use style="fill:#0000ff;stroke:#000000;" x="311.142857143" xlink:href="#m16496f2107" y="270.5647104"/>
     <use style="fill:#0000ff;stroke:#000000;" x="314.331428571" xlink:href="#m16496f2107" y="181.3874688"/>
     <use style="fill:#0000ff;stroke:#000000;" x="317.52" xlink:href="#m16496f2107" y="178.737408"/>
     <use style="fill:#0000ff;stroke:#000000;" x="320.708571429" xlink:href="#m16496f2107" y="167.16672"/>
     <use style="fill:#0000ff;stroke:#000000;" x="323.897142857" xlink:href="#m16496f2107" y="278.7222528"/>
     <use style="fill:#0000ff;stroke:#000000;" x="327.085714286" xlink:href="#m16496f2107" y="286.5106944"/>
     <use style="fill:#0000ff;stroke:#000000;" x="330.274285714" xlink:href="#m16496f2107" y="276.6445056"/>
     <use style="fill:#0000ff;stroke:#000000;" x="333.462857143" xlink:href="#m16496f2107" y="276.500736"/>
     <use style="fill:#0000ff;stroke:#000000;" x="336.651428571" xlink:href="#m16496f2107" y="276.0915456"/>
     <use style="fill:#0000ff;stroke:#000000;" x="339.84" xlink:href="#m16496f2107" y="282.2294016"/>
     <use style="fill:#0000ff;stroke:#000000;" x="343.028571429" xlink:href="#m16496f2107" y="265.4871552"/>
     <use style="fill:#0000ff;stroke:#000000;" x="346.217142857" xlink:href="#m16496f2107" y="264.384"/>
     <use style="fill:#0000ff;stroke:#000000;" x="349.405714286" xlink:href="#m16496f2107" y="266.229504"/>
     <use style="fill:#0000ff;stroke:#000000;" x="352.594285714" xlink:href="#m16496f2107" y="266.9359104"/>
     <use style="fill:#0000ff;stroke:#000000;" x="355.782857143" xlink:href="#m16496f2107" y="155.077632"/>
     <use style="fill:#0000ff;stroke:#000000;" x="358.971428571" xlink:href="#m16496f2107" y="151.6755456"/>
     <use style="fill:#0000ff;stroke:#000000;" x="362.16" xlink:href="#m16496f2107" y="159.1391232"/>
     <use style="fill:#0000ff;stroke:#000000;" x="365.348571429" xlink:href="#m16496f2107" y="266.5032192"/>
     <use style="fill:#0000ff;stroke:#000000;" x="368.537142857" xlink:href="#m16496f2107" y="268.6957056"/>
     <use style="fill:#0000ff;stroke:#000000;" x="371.725714286" xlink:href="#m16496f2107" y="146.4155136"/>
     <use style="fill:#0000ff;stroke:#000000;" x="374.914285714" xlink:href="#m16496f2107" y="149.0268672"/>
     <use style="fill:#0000ff;stroke:#000000;" x="378.102857143" xlink:href="#m16496f2107" y="261.8113536"/>
     <use style="fill:#0000ff;stroke:#000000;" x="381.291428571" xlink:href="#m16496f2107" y="259.3396224"/>
     <use style="fill:#0000ff;stroke:#000000;" x="384.48" xlink:href="#m16496f2107" y="144.2423808"/>
     <use style="fill:#0000ff;stroke:#000000;" x="387.668571429" xlink:href="#m16496f2107" y="249.2481024"/>
     <use style="fill:#0000ff;stroke:#000000;" x="390.857142857" xlink:href="#m16496f2107" y="139.7385216"/>
     <use style="fill:#0000ff;stroke:#000000;" x="394.045714286" xlink:href="#m16496f2107" y="238.6050048"/>
     <use style="fill:#0000ff;stroke:#000000;" x="397.234285714" xlink:href="#m16496f2107" y="137.2225536"/>
     <use style="fill:#0000ff;stroke:#000000;" x="400.422857143" xlink:href="#m16496f2107" y="133.0960896"/>
     <use style="fill:#0000ff;stroke:#000000;" x="403.611428571" xlink:href="#m16496f2107" y="217.6063488"/>
     <use style="fill:#0000ff;stroke:#000000;" x="406.8" xlink:href="#m16496f2107" y="137.9261952"/>
     <use style="fill:#0000ff;stroke:#000000;" x="409.988571429" xlink:href="#m16496f2107" y="132.0081408"/>
     <use style="fill:#0000ff;stroke:#000000;" x="413.177142857" xlink:href="#m16496f2107" y="226.5366528"/>
     <use style="fill:#0000ff;stroke:#000000;" x="416.365714286" xlink:href="#m16496f2107" y="243.1296"/>
     <use style="fill:#0000ff;stroke:#000000;" x="419.554285714" xlink:href="#m16496f2107" y="230.010624"/>
     <use style="fill:#0000ff;stroke:#000000;" x="422.742857143" xlink:href="#m16496f2107" y="234.9927936"/>
     <use style="fill:#0000ff;stroke:#000000;" x="425.931428571" xlink:href="#m16496f2107" y="215.716608"/>
     <use style="fill:#0000ff;stroke:#000000;" x="429.12" xlink:href="#m16496f2107" y="124.51968"/>
     <use style="fill:#0000ff;stroke:#000000;" x="432.308571429" xlink:href="#m16496f2107" y="122.0050944"/>
     <use style="fill:#0000ff;stroke:#000000;" x="435.497142857" xlink:href="#m16496f2107" y="219.3550848"/>
     <use style="fill:#0000ff;stroke:#000000;" x="438.685714286" xlink:href="#m16496f2107" y="129.9262464"/>
     <use style="fill:#0000ff;stroke:#000000;" x="441.874285714" xlink:href="#m16496f2107" y="125.2993536"/>
     <use style="fill:#0000ff;stroke:#000000;" x="445.062857143" xlink:href="#m16496f2107" y="116.024832"/>
     <use style="fill:#0000ff;stroke:#000000;" x="448.251428571" xlink:href="#m16496f2107" y="116.3054592"/>
     <use style="fill:#0000ff;stroke:#000000;" x="451.44" xlink:href="#m16496f2107" y="114.780672"/>
     <use style="fill:#0000ff;stroke:#000000;" x="454.628571429" xlink:href="#m16496f2107" y="118.0334592"/>
    </g>
   </g>
   <g id="patch_3">
    <path d="M 72 43.2 
L 518.4 43.2 
" style="fill:none;stroke:#000000;stroke-linecap:square;stroke-linejoin:miter;"/>
   </g>
   <g id="patch_4">
    <path d="M 518.4 388.8 
L 518.4 43.2 
" style="fill:none;stroke:#000000;stroke-linecap:square;stroke-linejoin:miter;"/>
   </g>
   <g id="patch_5">
    <path d="M 72 388.8 
L 518.4 388.8 
" style="fill:none;stroke:#000000;stroke-linecap:square;stroke-linejoin:miter;"/>
   </g>
   <g id="patch_6">
    <path d="M 72 388.8 
L 72 43.2 
" style="fill:none;stroke:#000000;stroke-linecap:square;stroke-linejoin:miter;"/>
   </g>
   <g id="matplotlib.axis_1">
    <g id="xtick_1">
     <g id="line2d_1">
      <defs>
       <path d="M 0 0 
L 0 -4 
" id="m20386797ba" style="stroke:#000000;stroke-width:0.5;"/>
      </defs>
      <g>
       <use style="stroke:#000000;stroke-width:0.5;" x="72.0" xlink:href="#m20386797ba" y="388.8"/>
      </g>
     </g>
     <g id="line2d_2">
      <defs>
       <path d="M 0 0 
L 0 4 
" id="m9f6b9cbd7c" style="stroke:#000000;stroke-width:0.5;"/>
      </defs>
      <g>
       <use style="stroke:#000000;stroke-width:0.5;" x="72.0" xlink:href="#m9f6b9cbd7c" y="43.2"/>
      </g>
     </g>
     <g id="text_1">
      <!-- −20 -->
      <defs>
       <path d="M 10.59375 35.5 
L 73.1875 35.5 
L 73.1875 27.203125 
L 10.59375 27.203125 
z
" id="BitstreamVeraSans-Roman-2212"/>
       <path d="M 19.1875 8.296875 
L 53.609375 8.296875 
L 53.609375 0 
L 7.328125 0 
L 7.328125 8.296875 
Q 12.9375 14.109375 22.625 23.890625 
Q 32.328125 33.6875 34.8125 36.53125 
Q 39.546875 41.84375 41.421875 45.53125 
Q 43.3125 49.21875 43.3125 52.78125 
Q 43.3125 58.59375 39.234375 62.25 
Q 35.15625 65.921875 28.609375 65.921875 
Q 23.96875 65.921875 18.8125 64.3125 
Q 13.671875 62.703125 7.8125 59.421875 
L 7.8125 69.390625 
Q 13.765625 71.78125 18.9375 73 
Q 24.125 74.21875 28.421875 74.21875 
Q 39.75 74.21875 46.484375 68.546875 
Q 53.21875 62.890625 53.21875 53.421875 
Q 53.21875 48.921875 51.53125 44.890625 
Q 49.859375 40.875 45.40625 35.40625 
Q 44.1875 33.984375 37.640625 27.21875 
Q 31.109375 20.453125 19.1875 8.296875 
" id="BitstreamVeraSans-Roman-32"/>
       <path d="M 31.78125 66.40625 
Q 24.171875 66.40625 20.328125 58.90625 
Q 16.5 51.421875 16.5 36.375 
Q 16.5 21.390625 20.328125 13.890625 
Q 24.171875 6.390625 31.78125 6.390625 
Q 39.453125 6.390625 43.28125 13.890625 
Q 47.125 21.390625 47.125 36.375 
Q 47.125 51.421875 43.28125 58.90625 
Q 39.453125 66.40625 31.78125 66.40625 
M 31.78125 74.21875 
Q 44.046875 74.21875 50.515625 64.515625 
Q 56.984375 54.828125 56.984375 36.375 
Q 56.984375 17.96875 50.515625 8.265625 
Q 44.046875 -1.421875 31.78125 -1.421875 
Q 19.53125 -1.421875 13.0625 8.265625 
Q 6.59375 17.96875 6.59375 36.375 
Q 6.59375 54.828125 13.0625 64.515625 
Q 19.53125 74.21875 31.78125 74.21875 
" id="BitstreamVeraSans-Roman-30"/>
      </defs>
      <g transform="translate(59.3371875 401.918125)scale(0.12 -0.12)">
       <use xlink:href="#BitstreamVeraSans-Roman-2212"/>
       <use x="83.7890625" xlink:href="#BitstreamVeraSans-Roman-32"/>
       <use x="147.412109375" xlink:href="#BitstreamVeraSans-Roman-30"/>
      </g>
     </g>
    </g>
    <g id="xtick_2">
     <g id="line2d_3">
      <g>
       <use style="stroke:#000000;stroke-width:0.5;" x="135.771428571" xlink:href="#m20386797ba" y="388.8"/>
      </g>
     </g>
     <g id="line2d_4">
      <g>
       <use style="stroke:#000000;stroke-width:0.5;" x="135.771428571" xlink:href="#m9f6b9cbd7c" y="43.2"/>
      </g>
     </g>
     <g id="text_2">
      <!-- 0 -->
      <g transform="translate(131.953928571 401.918125)scale(0.12 -0.12)">
       <use xlink:href="#BitstreamVeraSans-Roman-30"/>
      </g>
     </g>
    </g>
    <g id="xtick_3">
     <g id="line2d_5">
      <g>
       <use style="stroke:#000000;stroke-width:0.5;" x="199.542857143" xlink:href="#m20386797ba" y="388.8"/>
      </g>
     </g>
     <g id="line2d_6">
      <g>
       <use style="stroke:#000000;stroke-width:0.5;" x="199.542857143" xlink:href="#m9f6b9cbd7c" y="43.2"/>
      </g>
     </g>
     <g id="text_3">
      <!-- 20 -->
      <g transform="translate(191.907857143 401.918125)scale(0.12 -0.12)">
       <use xlink:href="#BitstreamVeraSans-Roman-32"/>
       <use x="63.623046875" xlink:href="#BitstreamVeraSans-Roman-30"/>
      </g>
     </g>
    </g>
    <g id="xtick_4">
     <g id="line2d_7">
      <g>
       <use style="stroke:#000000;stroke-width:0.5;" x="263.314285714" xlink:href="#m20386797ba" y="388.8"/>
      </g>
     </g>
     <g id="line2d_8">
      <g>
       <use style="stroke:#000000;stroke-width:0.5;" x="263.314285714" xlink:href="#m9f6b9cbd7c" y="43.2"/>
      </g>
     </g>
     <g id="text_4">
      <!-- 40 -->
      <defs>
       <path d="M 37.796875 64.3125 
L 12.890625 25.390625 
L 37.796875 25.390625 
z
M 35.203125 72.90625 
L 47.609375 72.90625 
L 47.609375 25.390625 
L 58.015625 25.390625 
L 58.015625 17.1875 
L 47.609375 17.1875 
L 47.609375 0 
L 37.796875 0 
L 37.796875 17.1875 
L 4.890625 17.1875 
L 4.890625 26.703125 
z
" id="BitstreamVeraSans-Roman-34"/>
      </defs>
      <g transform="translate(255.679285714 401.918125)scale(0.12 -0.12)">
       <use xlink:href="#BitstreamVeraSans-Roman-34"/>
       <use x="63.623046875" xlink:href="#BitstreamVeraSans-Roman-30"/>
      </g>
     </g>
    </g>
    <g id="xtick_5">
     <g id="line2d_9">
      <g>
       <use style="stroke:#000000;stroke-width:0.5;" x="327.085714286" xlink:href="#m20386797ba" y="388.8"/>
      </g>
     </g>
     <g id="line2d_10">
      <g>
       <use style="stroke:#000000;stroke-width:0.5;" x="327.085714286" xlink:href="#m9f6b9cbd7c" y="43.2"/>
      </g>
     </g>
     <g id="text_5">
      <!-- 60 -->
      <defs>
       <path d="M 33.015625 40.375 
Q 26.375 40.375 22.484375 35.828125 
Q 18.609375 31.296875 18.609375 23.390625 
Q 18.609375 15.53125 22.484375 10.953125 
Q 26.375 6.390625 33.015625 6.390625 
Q 39.65625 6.390625 43.53125 10.953125 
Q 47.40625 15.53125 47.40625 23.390625 
Q 47.40625 31.296875 43.53125 35.828125 
Q 39.65625 40.375 33.015625 40.375 
M 52.59375 71.296875 
L 52.59375 62.3125 
Q 48.875 64.0625 45.09375 64.984375 
Q 41.3125 65.921875 37.59375 65.921875 
Q 27.828125 65.921875 22.671875 59.328125 
Q 17.53125 52.734375 16.796875 39.40625 
Q 19.671875 43.65625 24.015625 45.921875 
Q 28.375 48.1875 33.59375 48.1875 
Q 44.578125 48.1875 50.953125 41.515625 
Q 57.328125 34.859375 57.328125 23.390625 
Q 57.328125 12.15625 50.6875 5.359375 
Q 44.046875 -1.421875 33.015625 -1.421875 
Q 20.359375 -1.421875 13.671875 8.265625 
Q 6.984375 17.96875 6.984375 36.375 
Q 6.984375 53.65625 15.1875 63.9375 
Q 23.390625 74.21875 37.203125 74.21875 
Q 40.921875 74.21875 44.703125 73.484375 
Q 48.484375 72.75 52.59375 71.296875 
" id="BitstreamVeraSans-Roman-36"/>
      </defs>
      <g transform="translate(319.450714286 401.918125)scale(0.12 -0.12)">
       <use xlink:href="#BitstreamVeraSans-Roman-36"/>
       <use x="63.623046875" xlink:href="#BitstreamVeraSans-Roman-30"/>
      </g>
     </g>
    </g>
    <g id="xtick_6">
     <g id="line2d_11">
      <g>
       <use style="stroke:#000000;stroke-width:0.5;" x="390.857142857" xlink:href="#m20386797ba" y="388.8"/>
      </g>
     </g>
     <g id="line2d_12">
      <g>
       <use style="stroke:#000000;stroke-width:0.5;" x="390.857142857" xlink:href="#m9f6b9cbd7c" y="43.2"/>
      </g>
     </g>
     <g id="text_6">
      <!-- 80 -->
      <defs>
       <path d="M 31.78125 34.625 
Q 24.75 34.625 20.71875 30.859375 
Q 16.703125 27.09375 16.703125 20.515625 
Q 16.703125 13.921875 20.71875 10.15625 
Q 24.75 6.390625 31.78125 6.390625 
Q 38.8125 6.390625 42.859375 10.171875 
Q 46.921875 13.96875 46.921875 20.515625 
Q 46.921875 27.09375 42.890625 30.859375 
Q 38.875 34.625 31.78125 34.625 
M 21.921875 38.8125 
Q 15.578125 40.375 12.03125 44.71875 
Q 8.5 49.078125 8.5 55.328125 
Q 8.5 64.0625 14.71875 69.140625 
Q 20.953125 74.21875 31.78125 74.21875 
Q 42.671875 74.21875 48.875 69.140625 
Q 55.078125 64.0625 55.078125 55.328125 
Q 55.078125 49.078125 51.53125 44.71875 
Q 48 40.375 41.703125 38.8125 
Q 48.828125 37.15625 52.796875 32.3125 
Q 56.78125 27.484375 56.78125 20.515625 
Q 56.78125 9.90625 50.3125 4.234375 
Q 43.84375 -1.421875 31.78125 -1.421875 
Q 19.734375 -1.421875 13.25 4.234375 
Q 6.78125 9.90625 6.78125 20.515625 
Q 6.78125 27.484375 10.78125 32.3125 
Q 14.796875 37.15625 21.921875 38.8125 
M 18.3125 54.390625 
Q 18.3125 48.734375 21.84375 45.5625 
Q 25.390625 42.390625 31.78125 42.390625 
Q 38.140625 42.390625 41.71875 45.5625 
Q 45.3125 48.734375 45.3125 54.390625 
Q 45.3125 60.0625 41.71875 63.234375 
Q 38.140625 66.40625 31.78125 66.40625 
Q 25.390625 66.40625 21.84375 63.234375 
Q 18.3125 60.0625 18.3125 54.390625 
" id="BitstreamVeraSans-Roman-38"/>
      </defs>
      <g transform="translate(383.222142857 401.918125)scale(0.12 -0.12)">
       <use xlink:href="#BitstreamVeraSans-Roman-38"/>
       <use x="63.623046875" xlink:href="#BitstreamVeraSans-Roman-30"/>
      </g>
     </g>
    </g>
    <g id="xtick_7">
     <g id="line2d_13">
      <g>
       <use style="stroke:#000000;stroke-width:0.5;" x="454.628571429" xlink:href="#m20386797ba" y="388.8"/>
      </g>
     </g>
     <g id="line2d_14">
      <g>
       <use style="stroke:#000000;stroke-width:0.5;" x="454.628571429" xlink:href="#m9f6b9cbd7c" y="43.2"/>
      </g>
     </g>
     <g id="text_7">
      <!-- 100 -->
      <defs>
       <path d="M 12.40625 8.296875 
L 28.515625 8.296875 
L 28.515625 63.921875 
L 10.984375 60.40625 
L 10.984375 69.390625 
L 28.421875 72.90625 
L 38.28125 72.90625 
L 38.28125 8.296875 
L 54.390625 8.296875 
L 54.390625 0 
L 12.40625 0 
z
" id="BitstreamVeraSans-Roman-31"/>
      </defs>
      <g transform="translate(443.176071429 401.918125)scale(0.12 -0.12)">
       <use xlink:href="#BitstreamVeraSans-Roman-31"/>
       <use x="63.623046875" xlink:href="#BitstreamVeraSans-Roman-30"/>
       <use x="127.24609375" xlink:href="#BitstreamVeraSans-Roman-30"/>
      </g>
     </g>
    </g>
    <g id="xtick_8">
     <g id="line2d_15">
      <g>
       <use style="stroke:#000000;stroke-width:0.5;" x="518.4" xlink:href="#m20386797ba" y="388.8"/>
      </g>
     </g>
     <g id="line2d_16">
      <g>
       <use style="stroke:#000000;stroke-width:0.5;" x="518.4" xlink:href="#m9f6b9cbd7c" y="43.2"/>
      </g>
     </g>
     <g id="text_8">
      <!-- 120 -->
      <g transform="translate(506.9475 401.918125)scale(0.12 -0.12)">
       <use xlink:href="#BitstreamVeraSans-Roman-31"/>
       <use x="63.623046875" xlink:href="#BitstreamVeraSans-Roman-32"/>
       <use x="127.24609375" xlink:href="#BitstreamVeraSans-Roman-30"/>
      </g>
     </g>
    </g>
   </g>
   <g id="matplotlib.axis_2">
    <g id="ytick_1">
     <g id="line2d_17">
      <defs>
       <path d="M 0 0 
L 4 0 
" id="mfe36608c1f" style="stroke:#000000;stroke-width:0.5;"/>
      </defs>
      <g>
       <use style="stroke:#000000;stroke-width:0.5;" x="72.0" xlink:href="#mfe36608c1f" y="388.8"/>
      </g>
     </g>
     <g id="line2d_18">
      <defs>
       <path d="M 0 0 
L -4 0 
" id="m3e62d1eedc" style="stroke:#000000;stroke-width:0.5;"/>
      </defs>
      <g>
       <use style="stroke:#000000;stroke-width:0.5;" x="518.4" xlink:href="#m3e62d1eedc" y="388.8"/>
      </g>
     </g>
     <g id="text_9">
      <!-- 200 -->
      <g transform="translate(45.095 392.11125)scale(0.12 -0.12)">
       <use xlink:href="#BitstreamVeraSans-Roman-32"/>
       <use x="63.623046875" xlink:href="#BitstreamVeraSans-Roman-30"/>
       <use x="127.24609375" xlink:href="#BitstreamVeraSans-Roman-30"/>
      </g>
     </g>
    </g>
    <g id="ytick_2">
     <g id="line2d_19">
      <g>
       <use style="stroke:#000000;stroke-width:0.5;" x="72.0" xlink:href="#mfe36608c1f" y="319.68"/>
      </g>
     </g>
     <g id="line2d_20">
      <g>
       <use style="stroke:#000000;stroke-width:0.5;" x="518.4" xlink:href="#m3e62d1eedc" y="319.68"/>
      </g>
     </g>
     <g id="text_10">
      <!-- 205 -->
      <defs>
       <path d="M 10.796875 72.90625 
L 49.515625 72.90625 
L 49.515625 64.59375 
L 19.828125 64.59375 
L 19.828125 46.734375 
Q 21.96875 47.46875 24.109375 47.828125 
Q 26.265625 48.1875 28.421875 48.1875 
Q 40.625 48.1875 47.75 41.5 
Q 54.890625 34.8125 54.890625 23.390625 
Q 54.890625 11.625 47.5625 5.09375 
Q 40.234375 -1.421875 26.90625 -1.421875 
Q 22.3125 -1.421875 17.546875 -0.640625 
Q 12.796875 0.140625 7.71875 1.703125 
L 7.71875 11.625 
Q 12.109375 9.234375 16.796875 8.0625 
Q 21.484375 6.890625 26.703125 6.890625 
Q 35.15625 6.890625 40.078125 11.328125 
Q 45.015625 15.765625 45.015625 23.390625 
Q 45.015625 31 40.078125 35.4375 
Q 35.15625 39.890625 26.703125 39.890625 
Q 22.75 39.890625 18.8125 39.015625 
Q 14.890625 38.140625 10.796875 36.28125 
z
" id="BitstreamVeraSans-Roman-35"/>
      </defs>
      <g transform="translate(45.095 322.99125)scale(0.12 -0.12)">
       <use xlink:href="#BitstreamVeraSans-Roman-32"/>
       <use x="63.623046875" xlink:href="#BitstreamVeraSans-Roman-30"/>
       <use x="127.24609375" xlink:href="#BitstreamVeraSans-Roman-35"/>
      </g>
     </g>
    </g>
    <g id="ytick_3">
     <g id="line2d_21">
      <g>
       <use style="stroke:#000000;stroke-width:0.5;" x="72.0" xlink:href="#mfe36608c1f" y="250.56"/>
      </g>
     </g>
     <g id="line2d_22">
      <g>
       <use style="stroke:#000000;stroke-width:0.5;" x="518.4" xlink:href="#m3e62d1eedc" y="250.56"/>
      </g>
     </g>
     <g id="text_11">
      <!-- 210 -->
      <g transform="translate(45.095 253.87125)scale(0.12 -0.12)">
       <use xlink:href="#BitstreamVeraSans-Roman-32"/>
       <use x="63.623046875" xlink:href="#BitstreamVeraSans-Roman-31"/>
       <use x="127.24609375" xlink:href="#BitstreamVeraSans-Roman-30"/>
      </g>
     </g>
    </g>
    <g id="ytick_4">
     <g id="line2d_23">
      <g>
       <use style="stroke:#000000;stroke-width:0.5;" x="72.0" xlink:href="#mfe36608c1f" y="181.44"/>
      </g>
     </g>
     <g id="line2d_24">
      <g>
       <use style="stroke:#000000;stroke-width:0.5;" x="518.4" xlink:href="#m3e62d1eedc" y="181.44"/>
      </g>
     </g>
     <g id="text_12">
      <!-- 215 -->
      <g transform="translate(45.095 184.75125)scale(0.12 -0.12)">
       <use xlink:href="#BitstreamVeraSans-Roman-32"/>
       <use x="63.623046875" xlink:href="#BitstreamVeraSans-Roman-31"/>
       <use x="127.24609375" xlink:href="#BitstreamVeraSans-Roman-35"/>
      </g>
     </g>
    </g>
    <g id="ytick_5">
     <g id="line2d_25">
      <g>
       <use style="stroke:#000000;stroke-width:0.5;" x="72.0" xlink:href="#mfe36608c1f" y="112.32"/>
      </g>
     </g>
     <g id="line2d_26">
      <g>
       <use style="stroke:#000000;stroke-width:0.5;" x="518.4" xlink:href="#m3e62d1eedc" y="112.32"/>
      </g>
     </g>
     <g id="text_13">
      <!-- 220 -->
      <g transform="translate(45.095 115.63125)scale(0.12 -0.12)">
       <use xlink:href="#BitstreamVeraSans-Roman-32"/>
       <use x="63.623046875" xlink:href="#BitstreamVeraSans-Roman-32"/>
       <use x="127.24609375" xlink:href="#BitstreamVeraSans-Roman-30"/>
      </g>
     </g>
    </g>
    <g id="ytick_6">
     <g id="line2d_27">
      <g>
       <use style="stroke:#000000;stroke-width:0.5;" x="72.0" xlink:href="#mfe36608c1f" y="43.2"/>
      </g>
     </g>
     <g id="line2d_28">
      <g>
       <use style="stroke:#000000;stroke-width:0.5;" x="518.4" xlink:href="#m3e62d1eedc" y="43.2"/>
      </g>
     </g>
     <g id="text_14">
      <!-- 225 -->
      <g transform="translate(45.095 46.51125)scale(0.12 -0.12)">
       <use xlink:href="#BitstreamVeraSans-Roman-32"/>
       <use x="63.623046875" xlink:href="#BitstreamVeraSans-Roman-32"/>
       <use x="127.24609375" xlink:href="#BitstreamVeraSans-Roman-35"/>
      </g>
     </g>
    </g>
   </g>
  </g>
 </g>
 <defs>
  <clipPath id="p740c42ec36">
   <rect height="345.6" width="446.4" x="72.0" y="43.2"/>
  </clipPath>
 </defs>
</svg>
